<?xml version="1.0" encoding="UTF-8" standalone="no"?><!DOCTYPE svg PUBLIC "-//W3C//DTD SVG 1.1//EN" "http://www.w3.org/Graphics/SVG/1.1/DTD/svg11.dtd"><svg width="100%" height="100%" viewBox="0 0 1701 426" version="1.1" xmlns="http://www.w3.org/2000/svg" xmlns:xlink="http://www.w3.org/1999/xlink" xml:space="preserve" xmlns:serif="http://www.serif.com/" style="fill-rule:evenodd;clip-rule:evenodd;stroke-linecap:round;stroke-linejoin:round;stroke-miterlimit:1.5;"><g><g><g><path d="M105.899,295.228l101.51,-174.737" style="fill:none;stroke:#7fb8e3;stroke-width:15.4px;"/><path d="M70.086,213.384l82.674,1.178" style="fill:none;stroke:#7fb8e3;stroke-width:15.4px;"/><g><path d="M59,207.014c3.535,-6.085 11.373,-8.171 17.491,-4.655c6.119,3.516 8.216,11.311 4.681,17.396c-3.535,6.085 -11.373,8.171 -17.491,4.655c-6.119,-3.516 -8.216,-11.311 -4.681,-17.396Z" style="fill:#5279ba;"/></g><g><path d="M94.813,288.858c3.535,-6.085 11.373,-8.171 17.491,-4.655c6.119,3.516 8.216,11.311 4.681,17.396c-3.535,6.085 -11.373,8.171 -17.491,4.655c-6.119,-3.516 -8.216,-11.311 -4.681,-17.396Z" style="fill:#5279ba;"/></g><g><path d="M141.674,208.192c3.535,-6.085 11.373,-8.171 17.491,-4.655c6.119,3.516 8.216,11.311 4.681,17.396c-3.535,6.085 -11.373,8.171 -17.491,4.655c-6.119,-3.516 -8.216,-11.311 -4.681,-17.396Z" style="fill:#5279ba;"/></g></g><g><path d="M106.46,295.228l101.51,-174.737" style="fill:none;stroke:#7fb8e3;stroke-width:15.4px;"/><path d="M70.647,213.384l82.674,1.178" style="fill:none;stroke:#7fb8e3;stroke-width:15.4px;"/><g><path d="M59.561,207.014c3.535,-6.085 11.373,-8.171 17.491,-4.655c6.119,3.516 8.216,11.311 4.681,17.396c-3.535,6.085 -11.373,8.171 -17.491,4.655c-6.119,-3.516 -8.216,-11.311 -4.681,-17.396Z" style="fill:#5279ba;"/></g><g><path d="M95.374,288.858c3.535,-6.085 11.373,-8.171 17.491,-4.655c6.119,3.516 8.216,11.311 4.681,17.396c-3.535,6.085 -11.373,8.171 -17.491,4.655c-6.119,-3.516 -8.216,-11.311 -4.681,-17.396Z" style="fill:#5279ba;"/></g><g><path d="M142.235,208.192c3.535,-6.085 11.373,-8.171 17.491,-4.655c6.119,3.516 8.216,11.311 4.681,17.396c-3.535,6.085 -11.373,8.171 -17.491,4.655c-6.119,-3.516 -8.216,-11.311 -4.681,-17.396Z" style="fill:#5279ba;"/></g></g><g><path d="M114.856,119.378l202.908,0" style="fill:none;stroke:#7fb8e3;stroke-width:15.4px;"/><path d="M168.193,47.592l40.334,71.785" style="fill:none;stroke:#7fb8e3;stroke-width:15.4px;"/><g><ellipse cx="168.193" cy="47.592" rx="12.804" ry="12.734" style="fill:#5279ba;"/></g><g><ellipse cx="114.856" cy="119.378" rx="12.804" ry="12.734" style="fill:#5279ba;"/></g><g><ellipse cx="208.528" cy="119.378" rx="12.804" ry="12.734" style="fill:#5279ba;"/></g></g><g><path d="M270.616,37.599l101.524,174.729" style="fill:none;stroke:#7fb8e3;stroke-width:15.4px;"/><path d="M359.796,47.612l-42.312,70.65" style="fill:none;stroke:#7fb8e3;stroke-width:15.4px;"/><g><path d="M370.882,41.24c3.536,6.085 1.439,13.88 -4.679,17.397c-6.118,3.516 -13.956,1.431 -17.492,-4.654c-3.536,-6.085 -1.439,-13.88 4.679,-17.397c6.118,-3.516 13.956,-1.431 17.492,4.654Z" style="fill:#5279ba;"/></g><g><path d="M281.702,31.228c3.536,6.085 1.439,13.88 -4.679,17.397c-6.118,3.516 -13.956,1.431 -17.492,-4.654c-3.536,-6.085 -1.439,-13.88 4.679,-17.397c6.118,-3.516 13.956,-1.431 17.492,4.654Z" style="fill:#5279ba;"/></g><g><path d="M328.57,111.891c3.536,6.085 1.439,13.88 -4.679,17.397c-6.118,3.516 -13.956,1.431 -17.492,-4.654c-3.536,-6.085 -1.439,-13.88 4.679,-17.397c6.118,-3.516 13.956,-1.431 17.492,4.654Z" style="fill:#5279ba;"/></g></g><g><path d="M419.494,130.159l-101.358,174.824" style="fill:none;stroke:#7fb8e3;stroke-width:15.4px;"/><path d="M455.378,211.973l-82.675,-1.107" style="fill:none;stroke:#7fb8e3;stroke-width:15.4px;"/><g><path d="M466.47,218.334c-3.53,6.088 -11.366,8.181 -17.487,4.67c-6.122,-3.511 -8.226,-11.304 -4.696,-17.392c3.53,-6.088 11.366,-8.181 17.487,-4.67c6.122,3.511 8.226,11.304 4.696,17.392Z" style="fill:#5279ba;"/></g><g><path d="M430.586,136.52c-3.53,6.088 -11.366,8.181 -17.487,4.67c-6.122,-3.511 -8.226,-11.304 -4.696,-17.392c3.53,-6.088 11.366,-8.181 17.487,-4.67c6.122,3.511 8.226,11.304 4.696,17.392Z" style="fill:#5279ba;"/></g><g><path d="M383.795,217.227c-3.53,6.088 -11.366,8.181 -17.487,4.67c-6.122,-3.511 -8.226,-11.304 -4.696,-17.392c3.53,-6.088 11.366,-8.181 17.487,-4.67c6.122,3.511 8.226,11.304 4.696,17.392Z" style="fill:#5279ba;"/></g></g><g><path d="M413.225,306.416l-202.908,0.127" style="fill:none;stroke:#7fb8e3;stroke-width:15.4px;"/><path d="M359.934,378.235l-40.38,-71.76" style="fill:none;stroke:#7fb8e3;stroke-width:15.4px;"/><g><path d="M359.942,390.969c-7.066,0.004 -12.807,-5.698 -12.812,-12.726c-0.004,-7.028 5.729,-12.738 12.795,-12.742c7.066,-0.004 12.807,5.698 12.812,12.726c0.004,7.028 -5.729,12.738 -12.795,12.742Z" style="fill:#5279ba;"/></g><g><path d="M413.233,319.15c-7.066,0.004 -12.807,-5.698 -12.812,-12.726c-0.004,-7.028 5.729,-12.738 12.795,-12.742c7.066,-0.004 12.807,5.698 12.812,12.726c0.004,7.028 -5.729,12.738 -12.795,12.742Z" style="fill:#5279ba;"/></g><g><path d="M319.562,319.209c-7.066,0.004 -12.807,-5.698 -12.812,-12.726c-0.004,-7.028 5.729,-12.738 12.795,-12.742c7.066,-0.004 12.807,5.698 12.812,12.726c0.004,7.028 -5.729,12.738 -12.795,12.742Z" style="fill:#5279ba;"/></g></g><g><path d="M254.748,387.681l-101.494,-174.746" style="fill:none;stroke:#7fb8e3;stroke-width:15.4px;"/><path d="M165.57,377.653l42.324,-70.643" style="fill:none;stroke:#7fb8e3;stroke-width:15.4px;"/><g><path d="M154.483,384.022c-3.535,-6.086 -1.436,-13.881 4.682,-17.396c6.119,-3.515 13.956,-1.429 17.491,4.657c3.535,6.086 1.436,13.881 -4.682,17.396c-6.119,3.515 -13.956,1.429 -17.491,-4.657Z" style="fill:#5279ba;"/></g><g><path d="M243.662,394.05c-3.535,-6.086 -1.436,-13.881 4.682,-17.396c6.119,-3.515 13.956,-1.429 17.491,4.657c3.535,6.086 1.436,13.881 -4.682,17.396c-6.119,3.515 -13.956,1.429 -17.491,-4.657Z" style="fill:#5279ba;"/></g><g><path d="M196.807,313.379c-3.535,-6.086 -1.436,-13.881 4.682,-17.396c6.119,-3.515 13.956,-1.429 17.491,4.657c3.535,6.086 1.436,13.881 -4.682,17.396c-6.119,3.515 -13.956,1.429 -17.491,-4.657Z" style="fill:#5279ba;"/></g></g><g><path d="M141.674,208.192c3.535,-6.085 11.373,-8.171 17.491,-4.655c6.119,3.516 8.216,11.311 4.681,17.396c-3.535,6.085 -11.373,8.171 -17.491,4.655c-6.119,-3.516 -8.216,-11.311 -4.681,-17.396Z" style="fill:#5279ba;"/></g></g></g><g transform="matrix(0.24,0,0,0.24,-532.390782,-55.614477)"><path d="M5211.696,1474.082c-0.71,-21.514 -1.228,-42.257 -1.553,-62.228c-0.545,-33.543 -0.818,-63.405 -0.818,-89.586l0,-802.409c-0,-16.108 13.058,-29.167 29.167,-29.167l115.56,0c16.108,-0 29.167,13.058 29.167,29.167l0,1212.565c-0,16.108 -13.058,29.167 -29.167,29.167l-134.277,0c-9.707,0 -18.777,-4.829 -24.197,-12.881l-515.951,-766.602l-0.138,-0.207c-20.167,-30.523 -40.47,-61.863 -60.909,-94.02c-20.497,-32.249 -42.773,-68.734 -66.823,-109.456l-2.111,-3.574c1.368,37.118 2.528,70.904 3.48,101.356c1.096,35.082 1.642,64.683 1.642,88.802l0,767.415c0,16.108 -13.058,29.167 -29.167,29.167l-116.374,0c-16.108,0 -29.167,-13.058 -29.167,-29.167l0,-1212.565c-0,-16.108 13.058,-29.167 29.167,-29.167l133.464,0c9.721,-0 18.804,4.843 24.22,12.916l552.572,823.568l0.048,0.072c15.328,22.993 32.574,49.816 51.735,80.473c13.033,20.852 26.509,42.972 40.43,66.36Zm-695.31,-812.635c-7.766,-13.088 -15.816,-26.646 -24.15,-40.676l22.786,0c0.455,13.792 0.909,27.35 1.364,40.676c22.564,38.027 42.726,72.076 60.485,102.146c23.872,40.419 45.98,76.633 66.325,108.643c20.345,32.01 40.554,63.205 60.628,93.587l515.951,766.602l134.277,0l0,-1212.565l-115.56,0l0,802.409c0,26.042 0.271,55.745 0.814,89.111c0.543,33.366 1.628,68.902 3.255,106.608c1.074,24.883 2.503,50.415 4.285,76.597c7.269,13.432 14.521,27.097 21.756,40.997l-18.717,0c-1.107,-13.838 -2.12,-27.504 -3.039,-40.997c-13.443,-24.84 -26.943,-48.881 -40.5,-72.122c-20.888,-35.807 -40.826,-68.902 -59.814,-99.284c-18.989,-30.382 -36.079,-56.966 -51.27,-79.753l-552.572,-823.568l-133.464,0l0,1212.565l116.374,0l0,-767.415c0,-23.872 -0.543,-53.168 -1.628,-87.891c-1.085,-34.722 -2.441,-73.785 -4.069,-117.188c-1.173,-31.278 -2.346,-64.106 -3.519,-98.484Zm1563.844,604.147l-298.253,-426.28c-6.234,-8.91 -6.994,-20.548 -1.971,-30.193c5.023,-9.645 14.994,-15.694 25.869,-15.694l129.395,0c9.648,0 18.672,4.771 24.104,12.745l139.16,204.264l0.113,0.166c26.917,40.101 51.084,78.28 72.508,114.536c3.538,5.988 7.085,11.954 10.638,17.896c3.191,-5.654 6.34,-11.329 9.447,-17.024c19.964,-36.601 43.801,-75.15 71.529,-115.634l0.048,-0.07l140.788,-204.264c5.444,-7.898 14.423,-12.614 24.015,-12.614l126.953,0c10.856,0 20.813,6.029 25.845,15.648c5.032,9.619 4.305,21.237 -1.887,30.154l-299.983,432.033l314.481,444.312c6.299,8.899 7.108,20.569 2.098,30.252c-5.01,9.684 -15.002,15.765 -25.905,15.765l-128.581,0c-9.589,0 -18.566,-4.714 -24.01,-12.608l-162.76,-236.003l-0.204,-0.3c-25.865,-38.522 -48.837,-74.983 -68.924,-109.379c-2.177,-3.728 -4.363,-7.445 -6.557,-11.149c-1.916,3.449 -3.818,6.909 -5.706,10.378c-18.882,34.71 -41.641,71.51 -68.298,110.386l-0.083,0.12l-163.574,236.003c-5.449,7.862 -14.406,12.552 -23.972,12.552l-128.581,0c-10.884,0 -20.862,-6.06 -25.881,-15.718c-5.019,-9.658 -4.242,-21.307 2.014,-30.213l316.126,-450.066Zm97.366,69.445c-9.556,-15.314 -19.26,-30.421 -29.11,-45.323l57.78,0c-9.85,14.902 -19.407,30.01 -28.669,45.323c10.971,17.58 21.748,35.431 32.332,53.554c19.803,33.908 42.453,69.851 67.952,107.829l162.76,236.003l128.581,0l-326.294,-461.002l-28.524,41.08l0,-81.38l28.524,40.3l311.645,-448.829l-126.953,0l-140.788,204.264c-27.127,39.605 -50.456,77.311 -69.987,113.118c-11.037,20.235 -22.594,40.209 -34.67,59.924c9.335,15.173 18.722,30.191 28.16,45.056l-56.966,0c9.91,-14.865 19.512,-29.884 28.806,-45.056c-12.13,-19.715 -24.174,-39.69 -36.13,-59.924c-21.159,-35.807 -45.03,-73.513 -71.615,-113.118l-139.16,-204.264l-129.395,0l309.975,443.033l29.381,-41.829l0,83.822l-29.381,-41.993l-327.878,466.797l128.581,0l163.574,-236.003c26.042,-37.977 48.286,-73.92 66.732,-107.829c9.859,-18.122 20.105,-35.974 30.738,-53.554Zm1323.162,139.042c-0.71,-21.514 -1.228,-42.257 -1.553,-62.228c-0.545,-33.543 -0.818,-63.405 -0.818,-89.586l0,-802.409c-0,-16.108 13.058,-29.167 29.167,-29.167l115.56,0c16.108,-0 29.167,13.058 29.167,29.167l0,1212.565c0,16.108 -13.058,29.167 -29.167,29.167l-134.277,0c-9.707,0 -18.777,-4.829 -24.197,-12.881l-515.951,-766.602l-0.138,-0.207c-20.167,-30.523 -40.47,-61.863 -60.909,-94.02c-20.497,-32.249 -42.773,-68.734 -66.823,-109.456l-2.111,-3.574c1.368,37.118 2.528,70.904 3.48,101.356c1.096,35.082 1.642,64.683 1.642,88.802l0,767.415c-0,16.108 -13.058,29.167 -29.167,29.167l-116.374,0c-16.108,0 -29.167,-13.058 -29.167,-29.167l0,-1212.565c-0,-16.108 13.058,-29.167 29.167,-29.167l133.464,0c9.721,-0 18.804,4.843 24.22,12.916l552.572,823.568l0.048,0.072c15.328,22.993 32.574,49.816 51.735,80.473c13.033,20.852 26.509,42.972 40.43,66.36Zm-695.31,-812.635c-7.766,-13.088 -15.816,-26.646 -24.15,-40.676l22.786,0c0.455,13.792 0.909,27.35 1.364,40.676c22.564,38.027 42.726,72.076 60.485,102.146c23.872,40.419 45.98,76.633 66.325,108.643c20.345,32.01 40.554,63.205 60.628,93.587l515.951,766.602l134.277,0l0,-1212.565l-115.56,0l0,802.409c0,26.042 0.271,55.745 0.814,89.111c0.543,33.366 1.628,68.902 3.255,106.608c1.074,24.883 2.503,50.415 4.285,76.597c7.269,13.432 14.521,27.097 21.756,40.997l-18.717,0c-1.107,-13.838 -2.12,-27.504 -3.039,-40.997c-13.443,-24.84 -26.943,-48.881 -40.5,-72.122c-20.888,-35.807 -40.826,-68.902 -59.814,-99.284c-18.989,-30.382 -36.079,-56.966 -51.27,-79.753l-552.572,-823.568l-133.464,0l0,1212.565l116.374,0l0,-767.415c0,-23.872 -0.543,-53.168 -1.628,-87.891c-1.085,-34.722 -2.441,-73.785 -4.069,-117.188c-1.173,-31.278 -2.346,-64.106 -3.519,-98.484Zm1148.147,678.594c3.957,48.788 14.878,92.612 33.003,131.425c22.494,48.166 54.263,85.692 95.583,112.342c41.356,26.673 90.261,39.696 146.545,39.696c38.03,0 71.589,-5.879 100.6,-18.068c28.455,-11.956 52.436,-27.753 71.804,-47.599c19.2,-19.674 33.624,-41.071 43.105,-64.3c5.747,-14.079 21.346,-21.381 35.838,-16.775l104.98,33.366c7.603,2.416 13.884,7.842 17.381,15.013c3.497,7.171 3.904,15.461 1.126,22.939c-15.433,41.551 -40.105,80.204 -74.236,115.819c-33.812,35.282 -76.21,63.784 -127.369,85.247c-50.484,21.18 -108.473,31.975 -174.044,31.975c-91.287,0 -170.128,-21.7 -236.703,-64.436c-66.619,-42.764 -118.21,-101.879 -154.574,-177.516c-35.676,-74.207 -53.743,-159.496 -53.743,-255.965c0,-96.36 17.748,-181.842 52.814,-256.535c35.724,-76.095 85.809,-135.816 149.996,-179.381c64.673,-43.896 139.669,-66.069 225.12,-66.069c53.619,0 105.198,9.769 154.737,29.294c49.807,19.63 94.671,49.456 134.517,89.595c39.635,39.927 70.987,90.386 93.719,151.587c22.231,59.854 33.563,130.219 33.563,211.165l0,48.014c0,16.108 -13.058,29.167 -29.167,29.167l-644.597,0Zm-30.698,-29.167l-38.409,0l0,-95.215l38.938,0c2.871,-50.287 14.712,-96.945 35.525,-139.974c24.143,-49.913 57.78,-90.061 100.911,-120.443c43.132,-30.382 93.452,-45.573 150.96,-45.573c58.051,0 107.693,14.92 148.926,44.759c41.233,29.839 72.971,70.53 95.215,122.07c18.085,41.904 28.818,88.291 32.199,139.16l51.622,0l-50.456,35.807c0,-12.173 -0.389,-24.109 -1.166,-35.807l-563.737,0c-0.459,8.045 -0.689,16.183 -0.689,24.414l0,56.966c0,4.649 0.053,9.261 0.16,13.835l675.296,0l0,-48.014c0,-77.04 -10.579,-144.043 -31.738,-201.009c-21.159,-56.966 -50.184,-104.031 -87.077,-141.195c-36.892,-37.164 -78.396,-64.833 -124.512,-83.008c-46.115,-18.175 -94.13,-27.262 -144.043,-27.262c-79.21,0 -148.79,20.345 -208.74,61.035c-59.95,40.69 -106.608,96.571 -139.974,167.643c-33.366,71.072 -50.049,152.452 -50.049,244.141c0,91.688 16.954,172.797 50.863,243.327c33.908,70.53 81.923,125.732 144.043,165.609c62.12,39.876 135.769,59.814 220.947,59.814c61.306,0 115.56,-9.901 162.76,-29.704c47.201,-19.803 86.399,-45.98 117.594,-78.532c31.196,-32.552 53.847,-67.817 67.952,-105.794l-104.98,-33.366c-10.851,26.584 -27.262,51.134 -49.235,73.649c-21.973,22.515 -49.099,40.554 -81.38,54.118c-32.281,13.563 -69.58,20.345 -111.898,20.345c-62.391,0 -116.509,-14.784 -162.354,-44.352c-45.844,-29.568 -81.245,-71.072 -106.201,-124.512c-23.324,-49.944 -35.749,-107.588 -37.275,-172.933Zm532.044,-124.382c-4.792,-35.323 -13.682,-68.141 -26.756,-98.436c-20.021,-46.39 -48.423,-83.142 -85.535,-109.999c-36.468,-26.391 -80.483,-39.221 -131.826,-39.221c-51.084,0 -95.851,13.263 -134.164,40.251c-39.119,27.555 -69.555,64.028 -91.451,109.298c-14.847,30.695 -24.698,63.402 -29.617,98.107l499.35,-0Zm267.568,-393.066l0,-187.305c0,-16.108 13.058,-29.167 29.167,-29.167l110.677,0c16.108,-0 29.167,13.058 29.167,29.167l0,187.305l158.008,0c16.108,0 29.167,13.058 29.167,29.167l0,96.029c0,16.108 -13.058,29.167 -29.167,29.167l-158.008,0l0,569.792c0,35.693 6.192,62.438 22.103,79.21c14.668,15.461 37.618,19.467 67.747,16.296c1.014,-0.107 2.033,-0.16 3.053,-0.16c6.27,0 13.987,-0.865 23.168,-2.432c10.618,-1.813 20.59,-3.753 29.913,-5.825c15.545,-3.454 30.987,6.197 34.693,21.684l22.786,95.215c3.557,14.862 -4.96,29.949 -19.522,34.582c-13.295,4.23 -27.945,7.581 -43.96,9.998c-15.316,2.312 -30.775,3.765 -46.373,4.359c-82.099,5.426 -145.919,-15.315 -192.212,-59.769c-46.282,-44.443 -70.407,-106.141 -70.407,-185.833l0,-577.116l-105.924,0c-16.108,-0 -29.167,-13.058 -29.167,-29.167l0,-96.029c0,-16.108 13.058,-29.167 29.167,-29.167l105.924,0Zm29.167,125.195l0,-96.029l-135.091,0l0,96.029l135.091,0Zm0,-96.029l110.677,0l0,-216.471l-110.677,0l0,216.471Zm110.677,0l0,96.029l187.174,0l0,-96.029l-187.174,0Zm0,96.029l-110.677,0l0,606.283c0,70.53 20.481,125.461 61.442,164.795c40.961,39.334 97.792,56.559 170.492,51.676c14.648,-0.543 29.161,-1.899 43.538,-4.069c14.377,-2.17 27.534,-5.154 39.469,-8.952l-22.786,-95.215c-9.766,2.17 -20.209,4.205 -31.331,6.104c-11.122,1.899 -20.481,2.848 -28.076,2.848c-41.233,4.34 -71.886,-4.069 -91.96,-25.228c-20.074,-21.159 -30.111,-54.253 -30.111,-99.284l0,-598.958Zm-29.167,-29.167l0,-37.695l-52.344,0l-0,37.695l52.344,-0Zm-3292.155,842.969l0,-909.831c0,-16.108 13.058,-29.167 29.167,-29.167l110.677,0c16.108,0 29.167,13.058 29.167,29.167l0,909.831c-0,16.108 -13.058,29.167 -29.167,29.167l-110.677,0c-16.108,0 -29.167,-13.058 -29.167,-29.167Zm29.167,-0l110.677,0l0,-909.831l-110.677,0l0,909.831Zm56.152,-1049.121c-30.165,0 -55.889,-10.37 -77.225,-30.971c-21.77,-21.019 -32.508,-46.231 -32.508,-75.507c0,-30.063 10.902,-55.427 32.698,-76.096c21.288,-20.187 46.939,-30.382 77.035,-30.382c30.096,0 55.748,10.196 77.035,30.382c21.796,20.668 32.698,46.033 32.698,76.096c0,29.277 -10.738,54.488 -32.508,75.507c-21.337,20.601 -47.06,30.971 -77.225,30.971Zm0,-29.167c22.244,0 41.233,-7.595 56.966,-22.786c15.734,-15.191 23.6,-33.366 23.6,-54.525c0,-21.701 -7.867,-40.012 -23.6,-54.932c-15.734,-14.92 -34.722,-22.38 -56.966,-22.38c-22.244,0 -41.233,7.46 -56.966,22.38c-15.734,14.92 -23.6,33.23 -23.6,54.932c0,21.159 7.867,39.334 23.6,54.525c15.734,15.191 34.722,22.786 56.966,22.786Z" style="fill:#fff;"/><g><g transform="matrix(1666.666667,0,0,1666.666667,4248.90946,1732.42484)"><path d="M0.096,-0l0,-0.728l0.08,0l0.332,0.494c0.009,0.014 0.019,0.03 0.031,0.048c0.011,0.018 0.023,0.038 0.036,0.06c0.013,0.021 0.025,0.044 0.037,0.068l-0.011,0c-0.002,-0.024 -0.003,-0.048 -0.004,-0.071c-0.001,-0.023 -0.002,-0.044 -0.002,-0.064c-0,-0.02 -0,-0.038 -0,-0.053l0,-0.481l0.069,0l0,0.728l-0.081,-0l-0.31,-0.46c-0.012,-0.018 -0.024,-0.037 -0.036,-0.056c-0.012,-0.019 -0.025,-0.041 -0.04,-0.065c-0.014,-0.024 -0.031,-0.053 -0.051,-0.086l0.014,0c0.001,0.03 0.002,0.057 0.003,0.083c0.001,0.026 0.002,0.049 0.002,0.07c0.001,0.021 0.001,0.038 0.001,0.053l0,0.46l-0.07,-0Z" style="fill-rule:nonzero;"/></g><g transform="matrix(1666.666667,0,0,1666.666667,5431.038366,1732.42484)"><path d="M0.083,-0l0,-0.546l0.066,0l0,0.546l-0.066,-0Zm0.034,-0.647c-0.013,0 -0.025,-0.005 -0.034,-0.014c-0.009,-0.009 -0.014,-0.02 -0.014,-0.033c0,-0.013 0.005,-0.024 0.014,-0.033c0.009,-0.009 0.021,-0.013 0.034,-0.013c0.013,0 0.025,0.004 0.034,0.013c0.009,0.009 0.014,0.02 0.014,0.033c0,0.013 -0.005,0.024 -0.014,0.033c-0.009,0.009 -0.021,0.014 -0.034,0.014Z" style="fill-rule:nonzero;"/></g><g transform="matrix(1666.666667,0,0,1666.666667,5736.702429,1732.42484)"><path d="M0.031,-0l0.214,-0.305l0,0.05l-0.204,-0.291l0.078,0l0.083,0.123c0.016,0.024 0.03,0.046 0.043,0.068c0.013,0.021 0.026,0.042 0.039,0.063l-0.034,0c0.014,-0.021 0.026,-0.042 0.038,-0.063c0.012,-0.021 0.026,-0.044 0.042,-0.068l0.084,-0.123l0.076,0l-0.204,0.294l0,-0.049l0.213,0.301l-0.077,-0l-0.098,-0.142c-0.015,-0.023 -0.029,-0.044 -0.041,-0.065c-0.012,-0.02 -0.024,-0.04 -0.037,-0.059l0.035,0c-0.013,0.019 -0.025,0.039 -0.036,0.059c-0.011,0.02 -0.024,0.042 -0.04,0.065l-0.098,0.142l-0.077,-0Z" style="fill-rule:nonzero;"/></g><g transform="matrix(1666.666667,0,0,1666.666667,6537.97196,1732.42484)"><path d="M0.096,-0l0,-0.728l0.08,0l0.332,0.494c0.009,0.014 0.019,0.03 0.031,0.048c0.011,0.018 0.023,0.038 0.036,0.06c0.013,0.021 0.025,0.044 0.037,0.068l-0.011,0c-0.002,-0.024 -0.003,-0.048 -0.004,-0.071c-0.001,-0.023 -0.002,-0.044 -0.002,-0.064c-0,-0.02 -0,-0.038 -0,-0.053l0,-0.481l0.069,0l0,0.728l-0.081,-0l-0.31,-0.46c-0.012,-0.018 -0.024,-0.037 -0.036,-0.056c-0.012,-0.019 -0.025,-0.041 -0.04,-0.065c-0.014,-0.024 -0.031,-0.053 -0.051,-0.086l0.014,0c0.001,0.03 0.002,0.057 0.003,0.083c0.001,0.026 0.002,0.049 0.002,0.07c0.001,0.021 0.001,0.038 0.001,0.053l0,0.46l-0.07,-0Z" style="fill-rule:nonzero;"/></g><g transform="matrix(1666.666667,0,0,1666.666667,7720.100866,1732.42484)"><path d="M0.305,0.012c-0.051,0 -0.095,-0.012 -0.133,-0.036c-0.037,-0.024 -0.066,-0.057 -0.086,-0.099c-0.02,-0.042 -0.031,-0.091 -0.031,-0.146c0,-0.055 0.01,-0.104 0.03,-0.146c0.02,-0.043 0.048,-0.076 0.084,-0.101c0.036,-0.024 0.078,-0.037 0.125,-0.037c0.03,0 0.059,0.005 0.086,0.016c0.028,0.011 0.053,0.028 0.075,0.05c0.022,0.022 0.04,0.051 0.052,0.085c0.013,0.034 0.019,0.074 0.019,0.121l0,0.029l-0.428,0l0,-0.057l0.393,0l-0.03,0.021c0,-0.039 -0.007,-0.074 -0.02,-0.105c-0.013,-0.031 -0.032,-0.055 -0.057,-0.073c-0.025,-0.018 -0.055,-0.027 -0.089,-0.027c-0.035,0 -0.065,0.009 -0.091,0.027c-0.026,0.018 -0.046,0.042 -0.061,0.072c-0.014,0.03 -0.022,0.063 -0.022,0.099l0,0.034c0,0.043 0.007,0.08 0.022,0.112c0.015,0.032 0.036,0.057 0.064,0.075c0.028,0.018 0.06,0.027 0.097,0.027c0.025,0 0.048,-0.004 0.067,-0.012c0.019,-0.008 0.036,-0.019 0.049,-0.032c0.013,-0.014 0.023,-0.028 0.03,-0.044l0.063,0.02c-0.008,0.023 -0.022,0.044 -0.041,0.063c-0.019,0.02 -0.042,0.035 -0.071,0.047c-0.028,0.012 -0.061,0.018 -0.098,0.018Z" style="fill-rule:nonzero;"/></g><g transform="matrix(1666.666667,0,0,1666.666667,8602.750606,1732.42484)"><path d="M0.268,-0.546l0,0.058l-0.26,0l0,-0.058l0.26,0Zm-0.179,-0.13l0.066,0l0,0.547c0,0.027 0.006,0.047 0.018,0.06c0.012,0.013 0.03,0.018 0.055,0.015c0.005,0 0.01,-0.001 0.017,-0.002c0.007,-0.001 0.013,-0.002 0.019,-0.004l0.014,0.057c-0.007,0.002 -0.015,0.004 -0.024,0.005c-0.009,0.001 -0.017,0.002 -0.026,0.002c-0.044,0.003 -0.078,-0.007 -0.102,-0.031c-0.025,-0.024 -0.037,-0.057 -0.037,-0.099l0,-0.551Z" style="fill-rule:nonzero;"/></g></g></g></svg>