<?xml version="1.0" encoding="UTF-8" standalone="no"?>
<!DOCTYPE svg PUBLIC "-//W3C//DTD SVG 1.1//EN" "http://www.w3.org/Graphics/SVG/1.1/DTD/svg11.dtd">
<svg width="100%" height="100%" viewBox="0 0 7087 1772" version="1.1" xmlns="http://www.w3.org/2000/svg" xmlns:xlink="http://www.w3.org/1999/xlink" xml:space="preserve" xmlns:serif="http://www.serif.com/" style="fill-rule:evenodd;clip-rule:evenodd;stroke-linecap:round;stroke-linejoin:round;stroke-miterlimit:1.5;">
    <g transform="matrix(1,0,0,1,-0,-885.5)">
        <g transform="matrix(0.584142,0,0,0.580968,63.668425,744.501181)">
            <g transform="matrix(0.500273,-0.865868,0.865868,0.500273,-666.480792,2421.820705)">
                <g transform="matrix(1.675354,0,0,1,-479.683937,-0)">
                    <path d="M710.27,1105.864L1574.171,1105.864" style="fill:none;stroke:rgb(127,184,227);stroke-width:79.72px;"/>
                </g>
                <path d="M1090.722,591.024L1378.426,1105.864" style="fill:none;stroke:rgb(127,184,227);stroke-width:109.89px;"/>
                <g transform="matrix(1,0,0,1,626.514234,261.20533)">
                    <circle cx="464.207" cy="329.819" r="91.327" style="fill:rgb(82,121,186);"/>
                </g>
                <g transform="matrix(1,0,0,1,246.062992,776.044821)">
                    <circle cx="464.207" cy="329.819" r="91.327" style="fill:rgb(82,121,186);"/>
                </g>
                <g transform="matrix(1,0,0,1,914.218655,776.044821)">
                    <circle cx="464.207" cy="329.819" r="91.327" style="fill:rgb(82,121,186);"/>
                </g>
            </g>
            <g transform="matrix(0.500273,-0.865868,0.865868,0.500273,-662.480792,2421.820705)">
                <g transform="matrix(1.675354,0,0,1,-479.683937,-0)">
                    <path d="M710.27,1105.864L1574.171,1105.864" style="fill:none;stroke:rgb(127,184,227);stroke-width:79.72px;"/>
                </g>
                <path d="M1090.722,591.024L1378.426,1105.864" style="fill:none;stroke:rgb(127,184,227);stroke-width:109.89px;"/>
                <g transform="matrix(1,0,0,1,626.514234,261.20533)">
                    <circle cx="464.207" cy="329.819" r="91.327" style="fill:rgb(82,121,186);"/>
                </g>
                <g transform="matrix(1,0,0,1,246.062992,776.044821)">
                    <circle cx="464.207" cy="329.819" r="91.327" style="fill:rgb(82,121,186);"/>
                </g>
                <g transform="matrix(1,0,0,1,914.218655,776.044821)">
                    <circle cx="464.207" cy="329.819" r="91.327" style="fill:rgb(82,121,186);"/>
                </g>
            </g>
            <g transform="matrix(1,0,0,1,0,-7)">
                <g transform="matrix(1.675354,0,0,1,-479.683937,0)">
                    <path d="M710.27,1105.864L1574.171,1105.864" style="fill:none;stroke:rgb(127,184,227);stroke-width:79.73px;"/>
                </g>
                <path d="M1090.722,591.024L1378.426,1105.864" style="fill:none;stroke:rgb(127,184,227);stroke-width:110.15px;"/>
                <g transform="matrix(1,0,0,1,626.514234,261.20533)">
                    <circle cx="464.207" cy="329.819" r="91.327" style="fill:rgb(82,121,186);"/>
                </g>
                <g transform="matrix(1,0,0,1,246.062992,776.044821)">
                    <circle cx="464.207" cy="329.819" r="91.327" style="fill:rgb(82,121,186);"/>
                </g>
                <g transform="matrix(1,0,0,1,914.218655,776.044821)">
                    <circle cx="464.207" cy="329.819" r="91.327" style="fill:rgb(82,121,186);"/>
                </g>
            </g>
            <g transform="matrix(0.500345,0.865826,-0.865826,0.500345,2423.407935,-655.926662)">
                <g transform="matrix(1.675354,0,0,1,-479.683937,0)">
                    <path d="M710.27,1105.864L1574.171,1105.864" style="fill:none;stroke:rgb(127,184,227);stroke-width:80.06px;"/>
                </g>
                <path d="M1090.722,591.024L1378.426,1105.864" style="fill:none;stroke:rgb(127,184,227);stroke-width:110.41px;"/>
                <g transform="matrix(1,0,0,1,626.514234,261.20533)">
                    <circle cx="464.207" cy="329.819" r="91.327" style="fill:rgb(82,121,186);"/>
                </g>
                <g transform="matrix(1,0,0,1,246.062992,776.044821)">
                    <circle cx="464.207" cy="329.819" r="91.327" style="fill:rgb(82,121,186);"/>
                </g>
                <g transform="matrix(1,0,0,1,914.218655,776.044821)">
                    <circle cx="464.207" cy="329.819" r="91.327" style="fill:rgb(82,121,186);"/>
                </g>
            </g>
            <g transform="matrix(-0.499525,0.866299,-0.866299,-0.499525,4196.052921,1113.291525)">
                <g transform="matrix(1.675354,0,0,1,-479.683937,0)">
                    <path d="M710.27,1105.864L1574.171,1105.864" style="fill:none;stroke:rgb(127,184,227);stroke-width:79.72px;"/>
                </g>
                <path d="M1090.722,591.024L1378.426,1105.864" style="fill:none;stroke:rgb(127,184,227);stroke-width:109.89px;"/>
                <g transform="matrix(1,0,0,1,626.514234,261.20533)">
                    <circle cx="464.207" cy="329.819" r="91.327" style="fill:rgb(82,121,186);"/>
                </g>
                <g transform="matrix(1,0,0,1,246.062992,776.044821)">
                    <circle cx="464.207" cy="329.819" r="91.327" style="fill:rgb(82,121,186);"/>
                </g>
                <g transform="matrix(1,0,0,1,914.218655,776.044821)">
                    <circle cx="464.207" cy="329.819" r="91.327" style="fill:rgb(82,121,186);"/>
                </g>
            </g>
            <g transform="matrix(-1,0.000631,-0.000631,-1,3549.495085,3545.708532)">
                <g transform="matrix(1.675354,0,0,1,-479.683937,0)">
                    <path d="M710.27,1105.864L1574.171,1105.864" style="fill:none;stroke:rgb(127,184,227);stroke-width:79.73px;"/>
                </g>
                <path d="M1090.722,591.024L1378.426,1105.864" style="fill:none;stroke:rgb(127,184,227);stroke-width:110.15px;"/>
                <g transform="matrix(1,0,0,1,626.514234,261.20533)">
                    <circle cx="464.207" cy="329.819" r="91.327" style="fill:rgb(82,121,186);"/>
                </g>
                <g transform="matrix(1,0,0,1,246.062992,776.044821)">
                    <circle cx="464.207" cy="329.819" r="91.327" style="fill:rgb(82,121,186);"/>
                </g>
                <g transform="matrix(1,0,0,1,914.218655,776.044821)">
                    <circle cx="464.207" cy="329.819" r="91.327" style="fill:rgb(82,121,186);"/>
                </g>
            </g>
            <g transform="matrix(-0.500196,-0.865913,0.865913,-0.500196,1105.809327,4191.294661)">
                <g transform="matrix(1.675354,0,0,1,-479.683937,0)">
                    <path d="M710.27,1105.864L1574.171,1105.864" style="fill:none;stroke:rgb(127,184,227);stroke-width:80.06px;"/>
                </g>
                <path d="M1090.722,591.024L1378.426,1105.864" style="fill:none;stroke:rgb(127,184,227);stroke-width:110.41px;"/>
                <g transform="matrix(1,0,0,1,626.514234,261.20533)">
                    <circle cx="464.207" cy="329.819" r="91.327" style="fill:rgb(82,121,186);"/>
                </g>
                <g transform="matrix(1,0,0,1,246.062992,776.044821)">
                    <circle cx="464.207" cy="329.819" r="91.327" style="fill:rgb(82,121,186);"/>
                </g>
                <g transform="matrix(1,0,0,1,914.218655,776.044821)">
                    <circle cx="464.207" cy="329.819" r="91.327" style="fill:rgb(82,121,186);"/>
                </g>
            </g>
            <g transform="matrix(0.500273,-0.865868,0.865868,0.500273,462.830386,2018.462829)">
                <circle cx="464.207" cy="329.819" r="91.327" style="fill:rgb(82,121,186);"/>
            </g>
        </g>
    </g>
    <g transform="matrix(1,0,0,1,-2218.294924,-231.72699)">
        <path d="M5211.696,1474.082C5210.986,1452.568 5210.469,1431.825 5210.144,1411.854C5209.598,1378.311 5209.326,1348.449 5209.326,1322.269L5209.326,519.86C5209.326,503.751 5222.384,490.693 5238.493,490.693L5354.053,490.693C5370.161,490.693 5383.219,503.751 5383.219,519.86L5383.219,1732.425C5383.219,1748.533 5370.161,1761.592 5354.053,1761.592L5219.775,1761.592C5210.069,1761.592 5200.998,1756.763 5195.579,1748.71L4679.628,982.109L4679.49,981.902C4659.323,951.379 4639.02,920.039 4618.581,887.881C4598.084,855.632 4575.808,819.147 4551.758,778.426L4549.647,774.852C4551.015,811.971 4552.175,845.756 4553.127,876.208C4554.223,911.29 4554.769,940.891 4554.769,965.009L4554.769,1732.425C4554.769,1748.533 4541.71,1761.592 4525.602,1761.592L4409.228,1761.592C4393.12,1761.592 4380.062,1748.533 4380.062,1732.425L4380.062,519.86C4380.062,503.751 4393.12,490.693 4409.228,490.693L4542.692,490.693C4552.413,490.693 4561.496,495.537 4566.912,503.609L5119.484,1327.177L5119.532,1327.249C5134.86,1350.241 5152.106,1377.065 5171.266,1407.722C5184.299,1428.574 5197.776,1450.694 5211.696,1474.082ZM4516.387,661.448C4508.621,648.36 4500.571,634.801 4492.236,620.771L4515.023,620.771C4515.477,634.563 4515.932,648.122 4516.387,661.448C4538.951,699.475 4559.112,733.524 4576.872,763.593C4600.743,804.012 4622.852,840.226 4643.197,872.236C4663.542,904.246 4683.751,935.441 4703.825,965.823L5219.775,1732.425L5354.053,1732.425L5354.053,519.86L5238.493,519.86L5238.493,1322.269C5238.493,1348.31 5238.764,1378.014 5239.307,1411.38C5239.849,1444.746 5240.934,1480.282 5242.562,1517.988C5243.636,1542.871 5245.064,1568.403 5246.847,1594.585C5254.116,1608.017 5261.368,1621.683 5268.603,1635.582L5249.886,1635.582C5248.779,1621.744 5247.766,1608.079 5246.847,1594.585C5233.404,1569.745 5219.905,1545.704 5206.348,1522.464C5185.46,1486.657 5165.522,1453.562 5146.533,1423.18C5127.544,1392.798 5110.455,1366.214 5095.264,1343.427L4542.692,519.86L4409.228,519.86L4409.228,1732.425L4525.602,1732.425L4525.602,965.009C4525.602,941.138 4525.06,911.841 4523.975,877.119C4522.889,842.397 4521.533,803.334 4519.906,759.931C4518.733,728.653 4517.56,695.825 4516.387,661.448ZM6080.231,1265.595L5781.978,839.315C5775.744,830.405 5774.984,818.766 5780.007,809.122C5785.03,799.477 5795.001,793.427 5805.876,793.427L5935.27,793.427C5944.918,793.427 5953.942,798.199 5959.375,806.172L6098.535,1010.437L6098.647,1010.603C6125.564,1050.704 6149.732,1088.884 6171.155,1125.139C6174.694,1131.127 6178.24,1137.092 6181.794,1143.035C6184.985,1137.381 6188.134,1131.706 6191.24,1126.01C6211.205,1089.409 6235.041,1050.86 6262.769,1010.377L6262.818,1010.306L6403.605,806.042C6409.049,798.144 6418.028,793.427 6427.62,793.427L6554.574,793.427C6565.429,793.427 6575.387,799.456 6580.418,809.076C6585.45,818.695 6584.723,830.312 6578.531,839.229L6278.548,1271.262L6593.029,1715.575C6599.328,1724.474 6600.137,1736.143 6595.127,1745.827C6590.117,1755.511 6580.125,1761.592 6569.222,1761.592L6440.641,1761.592C6431.052,1761.592 6422.075,1756.878 6416.631,1748.984L6253.87,1512.981L6253.666,1512.681C6227.801,1474.158 6204.829,1437.697 6184.742,1403.302C6182.565,1399.574 6180.379,1395.858 6178.186,1392.153C6176.269,1395.602 6174.367,1399.062 6172.48,1402.531C6153.597,1437.241 6130.839,1474.041 6104.181,1512.917L6104.099,1513.037L5940.524,1749.04C5935.075,1756.901 5926.118,1761.592 5916.553,1761.592L5787.972,1761.592C5777.088,1761.592 5767.109,1755.531 5762.091,1745.873C5757.072,1736.216 5757.849,1724.567 5764.105,1715.66L6080.231,1265.595ZM6177.597,1335.04C6168.04,1319.726 6158.337,1304.618 6148.486,1289.717L6206.266,1289.717C6196.416,1304.618 6186.859,1319.726 6177.597,1335.04C6188.568,1352.62 6199.345,1370.471 6209.928,1388.593C6229.731,1422.502 6252.382,1458.445 6277.881,1496.422L6440.641,1732.425L6569.222,1732.425L6242.928,1271.423L6214.404,1312.503L6214.404,1231.123L6242.928,1271.423L6554.574,822.594L6427.62,822.594L6286.833,1026.858C6259.706,1066.463 6236.377,1104.17 6216.846,1139.977C6205.809,1160.212 6194.252,1180.186 6182.175,1199.901C6191.511,1215.074 6200.897,1230.093 6210.335,1244.957L6153.369,1244.957C6163.279,1230.093 6172.881,1215.074 6182.175,1199.901C6170.045,1180.186 6158.002,1160.212 6146.045,1139.977C6124.886,1104.17 6101.014,1066.463 6074.43,1026.858L5935.27,822.594L5805.876,822.594L6115.85,1265.628L6145.231,1223.799L6145.231,1307.62L6115.85,1265.628L5787.972,1732.425L5916.553,1732.425L6080.127,1496.422C6106.169,1458.445 6128.412,1422.502 6146.859,1388.593C6156.717,1370.471 6166.963,1352.62 6177.597,1335.04ZM7500.759,1474.082C7500.048,1452.568 7499.531,1431.825 7499.206,1411.854C7498.661,1378.311 7498.389,1348.449 7498.389,1322.269L7498.389,519.86C7498.389,503.751 7511.447,490.693 7527.555,490.693L7643.115,490.693C7659.223,490.693 7672.282,503.751 7672.282,519.86L7672.282,1732.425C7672.282,1748.533 7659.223,1761.592 7643.115,1761.592L7508.838,1761.592C7499.131,1761.592 7490.061,1756.763 7484.641,1748.71L6968.691,982.109L6968.553,981.902C6948.386,951.379 6928.083,920.039 6907.644,887.881C6887.146,855.632 6864.871,819.147 6840.82,778.426L6838.71,774.852C6840.078,811.971 6841.238,845.756 6842.189,876.208C6843.286,911.29 6843.831,940.891 6843.831,965.009L6843.831,1732.425C6843.831,1748.533 6830.773,1761.592 6814.665,1761.592L6698.291,1761.592C6682.183,1761.592 6669.124,1748.533 6669.124,1732.425L6669.124,519.86C6669.124,503.751 6682.183,490.693 6698.291,490.693L6831.755,490.693C6841.476,490.693 6850.558,495.537 6855.975,503.609L7408.546,1327.177L7408.594,1327.249C7423.923,1350.241 7441.168,1377.065 7460.329,1407.722C7473.362,1428.574 7486.838,1450.694 7500.759,1474.082ZM6805.449,661.448C6797.684,648.36 6789.633,634.801 6781.299,620.771L6804.085,620.771C6804.54,634.563 6804.995,648.122 6805.449,661.448C6828.013,699.475 6848.175,733.524 6865.934,763.593C6889.806,804.012 6911.914,840.226 6932.259,872.236C6952.604,904.246 6972.814,935.441 6992.887,965.823L7508.838,1732.425L7643.115,1732.425L7643.115,519.86L7527.555,519.86L7527.555,1322.269C7527.555,1348.31 7527.827,1378.014 7528.369,1411.38C7528.912,1444.746 7529.997,1480.282 7531.624,1517.988C7532.698,1542.871 7534.127,1568.403 7535.91,1594.585C7543.179,1608.017 7550.431,1621.683 7557.666,1635.582L7538.949,1635.582C7537.841,1621.744 7536.829,1608.079 7535.91,1594.585C7522.467,1569.745 7508.967,1545.704 7495.41,1522.464C7474.523,1486.657 7454.584,1453.562 7435.596,1423.18C7416.607,1392.798 7399.517,1366.214 7384.326,1343.427L6831.755,519.86L6698.291,519.86L6698.291,1732.425L6814.665,1732.425L6814.665,965.009C6814.665,941.138 6814.122,911.841 6813.037,877.119C6811.952,842.397 6810.596,803.334 6808.968,759.931C6807.795,728.653 6806.622,695.825 6805.449,661.448ZM7953.596,1340.042C7957.553,1388.83 7968.474,1432.654 7986.599,1471.467C8009.093,1519.633 8040.862,1557.159 8082.182,1583.809C8123.539,1610.483 8172.444,1623.506 8228.727,1623.506C8266.757,1623.506 8300.317,1617.627 8329.327,1605.438C8357.782,1593.482 8381.763,1577.685 8401.131,1557.838C8420.331,1538.164 8434.755,1516.768 8444.236,1493.538C8449.983,1479.459 8465.582,1472.158 8480.075,1476.764L8585.055,1510.13C8592.658,1512.546 8598.94,1517.972 8602.436,1525.142C8605.933,1532.313 8606.34,1540.603 8603.562,1548.082C8588.129,1589.632 8563.457,1628.286 8529.326,1663.901C8495.514,1699.183 8453.116,1727.685 8401.958,1749.148C8351.474,1770.328 8293.484,1781.123 8227.913,1781.123C8136.627,1781.123 8057.786,1759.423 7991.21,1716.686C7924.591,1673.922 7873.001,1614.808 7836.637,1539.171C7800.96,1464.964 7782.894,1379.675 7782.894,1283.206C7782.894,1186.846 7800.642,1101.364 7835.707,1026.671C7871.431,950.576 7921.517,890.855 7985.703,847.289C8050.377,803.393 8125.373,781.22 8210.824,781.22C8264.443,781.22 8316.021,790.99 8365.561,810.514C8415.368,830.144 8460.232,859.971 8500.078,900.109C8539.713,940.036 8571.065,990.495 8593.797,1051.696C8616.028,1111.55 8627.36,1181.916 8627.36,1262.861L8627.36,1310.875C8627.36,1326.984 8614.302,1340.042 8598.193,1340.042L7953.596,1340.042ZM7922.898,1310.875L7884.489,1310.875L7884.489,1215.661L7923.426,1215.661C7926.297,1165.374 7938.139,1118.716 7958.952,1075.687C7983.095,1025.773 8016.732,985.626 8059.863,955.244C8102.995,924.862 8153.315,909.671 8210.824,909.671C8268.875,909.671 8318.517,924.591 8359.749,954.43C8400.982,984.269 8432.72,1024.96 8454.964,1076.5C8473.049,1118.404 8483.782,1164.791 8487.164,1215.661L8538.786,1215.661L8488.33,1251.468C8488.33,1239.295 8487.941,1227.359 8487.164,1215.661L7923.426,1215.661C7922.967,1223.706 7922.738,1231.844 7922.738,1240.075L7922.738,1297.041C7922.738,1301.69 7922.791,1306.302 7922.898,1310.875L8598.193,1310.875L8598.193,1262.861C8598.193,1185.821 8587.614,1118.818 8566.455,1061.852C8545.296,1004.886 8516.271,957.821 8479.378,920.657C8442.486,883.494 8400.982,855.824 8354.866,837.649C8308.751,819.475 8260.737,810.387 8210.824,810.387C8131.613,810.387 8062.033,830.732 8002.083,871.422C7942.133,912.112 7895.475,967.993 7862.109,1039.065C7828.743,1110.138 7812.061,1191.518 7812.061,1283.206C7812.061,1374.894 7829.015,1456.003 7862.923,1526.533C7896.832,1597.062 7944.846,1652.265 8006.966,1692.142C8069.086,1732.018 8142.735,1751.956 8227.913,1751.956C8289.22,1751.956 8343.473,1742.055 8390.674,1722.252C8437.874,1702.45 8477.072,1676.272 8508.268,1643.72C8539.464,1611.168 8562.115,1575.904 8576.221,1537.926L8471.24,1504.56C8460.389,1531.144 8443.978,1555.694 8422.005,1578.209C8400.033,1600.725 8372.906,1618.764 8340.625,1632.327C8308.344,1645.891 8271.045,1652.672 8228.727,1652.672C8166.336,1652.672 8112.218,1637.888 8066.374,1608.32C8020.529,1578.752 7985.129,1537.248 7960.172,1483.808C7936.848,1433.864 7924.424,1376.22 7922.898,1310.875ZM8454.941,1186.494C8450.149,1151.17 8441.26,1118.353 8428.185,1088.058C8408.164,1041.668 8379.762,1004.916 8342.65,978.058C8306.182,951.667 8262.167,938.838 8210.824,938.838C8159.74,938.838 8114.972,952.101 8076.66,979.089C8037.541,1006.644 8007.105,1043.117 7985.208,1088.387C7970.361,1119.082 7960.51,1151.789 7955.591,1186.494L8454.941,1186.494ZM8722.51,793.427L8722.51,606.123C8722.51,590.014 8735.568,576.956 8751.676,576.956L8862.353,576.956C8878.462,576.956 8891.52,590.014 8891.52,606.123L8891.52,793.427L9049.528,793.427C9065.636,793.427 9078.695,806.486 9078.695,822.594L9078.695,918.623C9078.695,934.731 9065.636,947.789 9049.528,947.789L8891.52,947.789L8891.52,1517.581C8891.52,1553.274 8897.712,1580.019 8913.624,1596.791C8928.292,1612.252 8951.241,1616.258 8981.37,1613.086C8982.385,1612.98 8983.404,1612.926 8984.424,1612.926C8990.694,1612.926 8998.411,1612.061 9007.591,1610.494C9018.21,1608.681 9028.181,1606.741 9037.504,1604.669C9053.049,1601.215 9068.491,1610.866 9072.197,1626.353L9094.983,1721.567C9098.54,1736.429 9090.023,1751.516 9075.461,1756.149C9062.166,1760.38 9047.517,1763.73 9031.502,1766.148C9016.186,1768.459 9000.727,1769.913 8985.129,1770.507C8903.03,1775.933 8839.21,1755.192 8792.917,1710.738C8746.634,1666.295 8722.51,1604.597 8722.51,1524.905L8722.51,947.789L8616.585,947.789C8600.477,947.789 8587.419,934.731 8587.419,918.623L8587.419,822.594C8587.419,806.486 8600.477,793.427 8616.585,793.427L8722.51,793.427ZM8751.676,918.623L8751.676,822.594L8616.585,822.594L8616.585,918.623L8751.676,918.623ZM8751.676,822.594L8862.353,822.594L8862.353,606.123L8751.676,606.123L8751.676,822.594ZM8862.353,822.594L8862.353,918.623L9049.528,918.623L9049.528,822.594L8862.353,822.594ZM8862.353,918.623L8751.676,918.623L8751.676,1524.905C8751.676,1595.435 8772.157,1650.366 8813.118,1689.7C8854.08,1729.034 8910.91,1746.259 8983.61,1741.377C8998.258,1740.834 9012.771,1739.478 9027.148,1737.308C9041.526,1735.138 9054.682,1732.154 9066.618,1728.356L9043.831,1633.141C9034.066,1635.311 9023.622,1637.346 9012.5,1639.245C9001.378,1641.143 8992.019,1642.093 8984.424,1642.093C8943.191,1646.433 8912.538,1638.024 8892.464,1616.865C8872.39,1595.706 8862.353,1562.611 8862.353,1517.581L8862.353,918.623ZM8833.187,889.456L8833.187,851.761L8780.843,851.761L8780.843,889.456L8833.187,889.456ZM5541.032,1732.425L5541.032,822.594C5541.032,806.486 5554.09,793.427 5570.199,793.427L5680.876,793.427C5696.984,793.427 5710.042,806.486 5710.042,822.594L5710.042,1732.425C5710.042,1748.533 5696.984,1761.592 5680.876,1761.592L5570.199,1761.592C5554.09,1761.592 5541.032,1748.533 5541.032,1732.425ZM5570.199,1732.425L5680.876,1732.425L5680.876,822.594L5570.199,822.594L5570.199,1732.425ZM5626.351,683.304C5596.185,683.304 5570.462,672.934 5549.126,652.333C5527.356,631.314 5516.618,606.103 5516.618,576.826C5516.618,546.763 5527.52,521.399 5549.315,500.73C5570.603,480.544 5596.255,470.348 5626.351,470.348C5656.447,470.348 5682.099,480.544 5703.386,500.73C5725.182,521.399 5736.084,546.763 5736.084,576.826C5736.084,606.103 5725.346,631.314 5703.576,652.333C5682.239,672.934 5656.516,683.304 5626.351,683.304ZM5626.351,654.137C5648.595,654.137 5667.584,646.542 5683.317,631.351C5699.051,616.16 5706.917,597.985 5706.917,576.826C5706.917,555.124 5699.051,536.814 5683.317,521.894C5667.584,506.975 5648.595,499.515 5626.351,499.515C5604.107,499.515 5585.118,506.975 5569.385,521.894C5553.651,536.814 5545.784,555.124 5545.784,576.826C5545.784,597.985 5553.651,616.16 5569.385,631.351C5585.118,646.542 5604.107,654.137 5626.351,654.137Z" style="fill:white;"/>
        <g>
            <g transform="matrix(1666.666667,0,0,1666.666667,4248.90946,1732.42484)">
                <path d="M0.096,-0L0.096,-0.728L0.176,-0.728L0.508,-0.233C0.517,-0.22 0.527,-0.204 0.539,-0.186C0.55,-0.167 0.562,-0.147 0.574,-0.126C0.587,-0.104 0.599,-0.082 0.612,-0.058L0.601,-0.058C0.599,-0.083 0.597,-0.106 0.596,-0.129C0.595,-0.151 0.595,-0.173 0.594,-0.193C0.594,-0.213 0.594,-0.23 0.594,-0.246L0.594,-0.728L0.663,-0.728L0.663,-0L0.583,-0L0.273,-0.46C0.261,-0.478 0.249,-0.497 0.237,-0.516C0.224,-0.535 0.211,-0.557 0.197,-0.581C0.182,-0.606 0.166,-0.634 0.146,-0.667L0.16,-0.667C0.161,-0.637 0.162,-0.61 0.163,-0.583C0.164,-0.557 0.164,-0.534 0.165,-0.513C0.166,-0.492 0.166,-0.475 0.166,-0.46L0.166,-0L0.096,-0Z" style="fill-rule:nonzero;"/>
            </g>
            <g transform="matrix(1666.666667,0,0,1666.666667,5431.038366,1732.42484)">
                <path d="M0.083,-0L0.083,-0.546L0.15,-0.546L0.15,-0L0.083,-0ZM0.117,-0.647C0.104,-0.647 0.092,-0.652 0.083,-0.661C0.074,-0.67 0.069,-0.681 0.069,-0.693C0.069,-0.706 0.074,-0.717 0.083,-0.726C0.092,-0.735 0.104,-0.74 0.117,-0.74C0.131,-0.74 0.142,-0.735 0.151,-0.726C0.161,-0.717 0.166,-0.706 0.166,-0.693C0.166,-0.681 0.161,-0.67 0.151,-0.661C0.142,-0.652 0.131,-0.647 0.117,-0.647Z" style="fill-rule:nonzero;"/>
            </g>
            <g transform="matrix(1666.666667,0,0,1666.666667,5736.702429,1732.42484)">
                <path d="M0.031,-0L0.245,-0.305L0.245,-0.255L0.042,-0.546L0.119,-0.546L0.203,-0.423C0.219,-0.4 0.233,-0.377 0.246,-0.355C0.258,-0.334 0.271,-0.313 0.284,-0.292L0.25,-0.292C0.264,-0.313 0.276,-0.334 0.288,-0.355C0.3,-0.377 0.314,-0.4 0.33,-0.423L0.415,-0.546L0.491,-0.546L0.287,-0.252L0.287,-0.301L0.5,-0L0.422,-0L0.325,-0.142C0.309,-0.164 0.296,-0.186 0.284,-0.206C0.272,-0.227 0.26,-0.246 0.247,-0.266L0.282,-0.266C0.269,-0.246 0.257,-0.227 0.246,-0.206C0.235,-0.186 0.222,-0.164 0.206,-0.142L0.108,-0L0.031,-0Z" style="fill-rule:nonzero;"/>
            </g>
            <g transform="matrix(1666.666667,0,0,1666.666667,6537.97196,1732.42484)">
                <path d="M0.096,-0L0.096,-0.728L0.176,-0.728L0.508,-0.233C0.517,-0.22 0.527,-0.204 0.539,-0.186C0.55,-0.167 0.562,-0.147 0.574,-0.126C0.587,-0.104 0.599,-0.082 0.612,-0.058L0.601,-0.058C0.599,-0.083 0.597,-0.106 0.596,-0.129C0.595,-0.151 0.595,-0.173 0.594,-0.193C0.594,-0.213 0.594,-0.23 0.594,-0.246L0.594,-0.728L0.663,-0.728L0.663,-0L0.583,-0L0.273,-0.46C0.261,-0.478 0.249,-0.497 0.237,-0.516C0.224,-0.535 0.211,-0.557 0.197,-0.581C0.182,-0.606 0.166,-0.634 0.146,-0.667L0.16,-0.667C0.161,-0.637 0.162,-0.61 0.163,-0.583C0.164,-0.557 0.164,-0.534 0.165,-0.513C0.166,-0.492 0.166,-0.475 0.166,-0.46L0.166,-0L0.096,-0Z" style="fill-rule:nonzero;"/>
            </g>
            <g transform="matrix(1666.666667,0,0,1666.666667,7720.100866,1732.42484)">
                <path d="M0.305,0.012C0.254,0.012 0.209,-0 0.172,-0.024C0.135,-0.048 0.106,-0.081 0.086,-0.124C0.065,-0.166 0.055,-0.215 0.055,-0.27C0.055,-0.325 0.065,-0.373 0.085,-0.416C0.105,-0.459 0.133,-0.492 0.169,-0.517C0.205,-0.541 0.247,-0.553 0.294,-0.553C0.324,-0.553 0.353,-0.548 0.381,-0.537C0.409,-0.526 0.433,-0.509 0.456,-0.487C0.478,-0.465 0.495,-0.437 0.508,-0.402C0.521,-0.368 0.527,-0.328 0.527,-0.282L0.527,-0.253L0.099,-0.253L0.099,-0.31L0.491,-0.31L0.461,-0.289C0.461,-0.328 0.454,-0.363 0.441,-0.394C0.428,-0.424 0.409,-0.449 0.384,-0.467C0.359,-0.485 0.329,-0.494 0.294,-0.494C0.26,-0.494 0.23,-0.485 0.204,-0.466C0.178,-0.448 0.158,-0.424 0.143,-0.394C0.129,-0.364 0.122,-0.331 0.122,-0.295L0.122,-0.261C0.122,-0.219 0.129,-0.181 0.144,-0.149C0.159,-0.117 0.18,-0.092 0.208,-0.074C0.235,-0.057 0.268,-0.048 0.305,-0.048C0.331,-0.048 0.353,-0.052 0.372,-0.06C0.392,-0.068 0.408,-0.079 0.421,-0.093C0.434,-0.106 0.444,-0.121 0.451,-0.137L0.514,-0.117C0.505,-0.094 0.492,-0.073 0.473,-0.053C0.454,-0.034 0.431,-0.018 0.402,-0.006C0.374,0.006 0.341,0.012 0.305,0.012Z" style="fill-rule:nonzero;"/>
            </g>
            <g transform="matrix(1666.666667,0,0,1666.666667,8602.750606,1732.42484)">
                <path d="M0.268,-0.546L0.268,-0.488L0.008,-0.488L0.008,-0.546L0.268,-0.546ZM0.089,-0.676L0.156,-0.676L0.156,-0.129C0.156,-0.102 0.162,-0.082 0.174,-0.069C0.186,-0.057 0.204,-0.052 0.229,-0.054C0.234,-0.054 0.239,-0.055 0.246,-0.056C0.253,-0.057 0.259,-0.058 0.265,-0.06L0.278,-0.002C0.271,-0 0.263,0.002 0.255,0.003C0.246,0.004 0.237,0.005 0.229,0.005C0.185,0.008 0.151,-0.002 0.126,-0.026C0.102,-0.049 0.089,-0.082 0.089,-0.125L0.089,-0.676Z" style="fill-rule:nonzero;"/>
            </g>
        </g>
    </g>
</svg>
